<svg width="11" height="14" viewBox="0 0 11 14" fill="none" xmlns="http://www.w3.org/2000/svg">
<path d="M5.47109 13.877C6.00243 13.877 6.50232 13.6223 6.81893 13.1899L10.4857 8.40511C11.0943 7.61677 11.0943 6.26564 10.4857 5.47175L6.81004 0.675818C6.65262 0.4649 6.44899 0.294055 6.21526 0.176798C5.98154 0.0595432 5.72412 -0.000904539 5.4634 0.000239847C5.20267 0.00138423 4.94578 0.0640883 4.71306 0.183392C4.48034 0.302695 4.27817 0.475323 4.12256 0.687615L0.456497 5.47175C-0.152119 6.26009 -0.152119 7.61122 0.456497 8.4051L4.13213 13.201C4.28848 13.4112 4.49081 13.5817 4.72317 13.699C4.95553 13.8163 5.21157 13.8772 5.47109 13.877Z" fill="#FF2F2F"/>
</svg>
